<?xml version="1.0" encoding="UTF-8" standalone="no"?><svg xmlns="http://www.w3.org/2000/svg" xmlns:xlink="http://www.w3.org/1999/xlink" contentStyleType="text/css" height="585px" preserveAspectRatio="none" style="width:672px;height:585px;background:#FFFFFF;" version="1.1" viewBox="0 0 672 585" width="672px" zoomAndPan="magnify"><defs/><g><rect fill="#FFFFFF" height="421.8594" style="stroke:#181818;stroke-width:1.0;" width="10" x="155.5" y="110.5625"/><rect fill="#FFFFFF" height="392.7266" style="stroke:#181818;stroke-width:1.0;" width="10" x="354" y="139.6953"/><rect fill="#FFFFFF" height="363.5938" style="stroke:#181818;stroke-width:1.0;" width="10" x="557.5" y="168.8281"/><line style="stroke:#181818;stroke-width:0.5;stroke-dasharray:5.0,5.0;" x1="29" x2="29" y1="36.2969" y2="550.4219"/><line style="stroke:#181818;stroke-width:0.5;stroke-dasharray:5.0,5.0;" x1="160" x2="160" y1="36.2969" y2="550.4219"/><line style="stroke:#181818;stroke-width:0.5;stroke-dasharray:5.0,5.0;" x1="359" x2="359" y1="36.2969" y2="550.4219"/><line style="stroke:#181818;stroke-width:0.5;stroke-dasharray:5.0,5.0;" x1="562" x2="562" y1="36.2969" y2="550.4219"/><rect fill="#E2E2F0" height="30.2969" rx="2.5" ry="2.5" style="stroke:#181818;stroke-width:0.5;" width="49" x="5" y="5"/><text fill="#000000" font-family="sans-serif" font-size="14" lengthAdjust="spacing" textLength="35" x="12" y="24.9951">main</text><rect fill="#E2E2F0" height="30.2969" rx="2.5" ry="2.5" style="stroke:#181818;stroke-width:0.5;" width="49" x="5" y="549.4219"/><text fill="#000000" font-family="sans-serif" font-size="14" lengthAdjust="spacing" textLength="35" x="12" y="569.417">main</text><rect fill="#E2E2F0" height="30.2969" rx="2.5" ry="2.5" style="stroke:#181818;stroke-width:0.5;" width="185" x="68" y="5"/><text fill="#000000" font-family="sans-serif" font-size="14" lengthAdjust="spacing" textLength="171" x="75" y="24.9951">dossierBancaire:Dossier</text><rect fill="#E2E2F0" height="30.2969" rx="2.5" ry="2.5" style="stroke:#181818;stroke-width:0.5;" width="185" x="68" y="549.4219"/><text fill="#000000" font-family="sans-serif" font-size="14" lengthAdjust="spacing" textLength="171" x="75" y="569.417">dossierBancaire:Dossier</text><rect fill="#E2E2F0" height="30.2969" rx="2.5" ry="2.5" style="stroke:#181818;stroke-width:0.5;" width="192" x="263" y="5"/><text fill="#000000" font-family="sans-serif" font-size="14" lengthAdjust="spacing" textLength="178" x="270" y="24.9951">compteCourant:Compte</text><rect fill="#E2E2F0" height="30.2969" rx="2.5" ry="2.5" style="stroke:#181818;stroke-width:0.5;" width="192" x="263" y="549.4219"/><text fill="#000000" font-family="sans-serif" font-size="14" lengthAdjust="spacing" textLength="178" x="270" y="569.417">compteCourant:Compte</text><rect fill="#E2E2F0" height="30.2969" rx="2.5" ry="2.5" style="stroke:#181818;stroke-width:0.5;" width="195" x="465" y="5"/><text fill="#000000" font-family="sans-serif" font-size="14" lengthAdjust="spacing" textLength="181" x="472" y="24.9951">compteEpargne:Compte</text><rect fill="#E2E2F0" height="30.2969" rx="2.5" ry="2.5" style="stroke:#181818;stroke-width:0.5;" width="195" x="465" y="549.4219"/><text fill="#000000" font-family="sans-serif" font-size="14" lengthAdjust="spacing" textLength="181" x="472" y="569.417">compteEpargne:Compte</text><rect fill="#FFFFFF" height="421.8594" style="stroke:#181818;stroke-width:1.0;" width="10" x="155.5" y="110.5625"/><rect fill="#FFFFFF" height="392.7266" style="stroke:#181818;stroke-width:1.0;" width="10" x="354" y="139.6953"/><rect fill="#FFFFFF" height="363.5938" style="stroke:#181818;stroke-width:1.0;" width="10" x="557.5" y="168.8281"/><rect fill="#EEEEEE" height="3" style="stroke:#EEEEEE;stroke-width:1.0;" width="665" x="0" y="66.8633"/><line style="stroke:#000000;stroke-width:1.0;" x1="0" x2="665" y1="66.8633" y2="66.8633"/><line style="stroke:#000000;stroke-width:1.0;" x1="0" x2="665" y1="69.8633" y2="69.8633"/><rect fill="#EEEEEE" height="23.1328" style="stroke:#000000;stroke-width:2.0;" width="109" x="278" y="56.2969"/><text fill="#000000" font-family="sans-serif" font-size="13" font-weight="bold" lengthAdjust="spacing" textLength="95" x="284" y="72.3638">Initialisation</text><polygon fill="#181818" points="143.5,106.5625,153.5,110.5625,143.5,114.5625,147.5,110.5625" style="stroke:#181818;stroke-width:1.0;"/><line style="stroke:#181818;stroke-width:1.0;" x1="29.5" x2="149.5" y1="110.5625" y2="110.5625"/><text fill="#000000" font-family="sans-serif" font-size="13" lengthAdjust="spacing" textLength="58" x="36.5" y="105.4966">Dossier()</text><polygon fill="#181818" points="342,135.6953,352,139.6953,342,143.6953,346,139.6953" style="stroke:#181818;stroke-width:1.0;"/><line style="stroke:#181818;stroke-width:1.0;" x1="165.5" x2="348" y1="139.6953" y2="139.6953"/><text fill="#000000" font-family="sans-serif" font-size="13" lengthAdjust="spacing" textLength="61" x="172.5" y="134.6294">Compte()</text><polygon fill="#181818" points="545.5,164.8281,555.5,168.8281,545.5,172.8281,549.5,168.8281" style="stroke:#181818;stroke-width:1.0;"/><line style="stroke:#181818;stroke-width:1.0;" x1="165.5" x2="551.5" y1="168.8281" y2="168.8281"/><text fill="#000000" font-family="sans-serif" font-size="13" lengthAdjust="spacing" textLength="61" x="172.5" y="163.7622">Compte()</text><rect fill="#EEEEEE" height="3" style="stroke:#EEEEEE;stroke-width:1.0;" width="665" x="0" y="197.3945"/><line style="stroke:#000000;stroke-width:1.0;" x1="0" x2="665" y1="197.3945" y2="197.3945"/><line style="stroke:#000000;stroke-width:1.0;" x1="0" x2="665" y1="200.3945" y2="200.3945"/><rect fill="#EEEEEE" height="23.1328" style="stroke:#000000;stroke-width:2.0;" width="139" x="263" y="186.8281"/><text fill="#000000" font-family="sans-serif" font-size="13" font-weight="bold" lengthAdjust="spacing" textLength="125" x="269" y="202.895">Fonctionnement</text><polygon fill="#181818" points="143.5,237.0938,153.5,241.0938,143.5,245.0938,147.5,241.0938" style="stroke:#181818;stroke-width:1.0;"/><line style="stroke:#181818;stroke-width:1.0;" x1="29.5" x2="149.5" y1="241.0938" y2="241.0938"/><text fill="#000000" font-family="sans-serif" font-size="13" lengthAdjust="spacing" textLength="102" x="36.5" y="236.0278">crediter(double)</text><polygon fill="#181818" points="342,266.2266,352,270.2266,342,274.2266,346,270.2266" style="stroke:#181818;stroke-width:1.0;"/><line style="stroke:#181818;stroke-width:1.0;" x1="165.5" x2="348" y1="270.2266" y2="270.2266"/><text fill="#000000" font-family="sans-serif" font-size="13" lengthAdjust="spacing" textLength="59" x="172.5" y="265.1606">crediter()</text><polygon fill="#181818" points="545.5,295.3594,555.5,299.3594,545.5,303.3594,549.5,299.3594" style="stroke:#181818;stroke-width:1.0;"/><line style="stroke:#181818;stroke-width:1.0;" x1="165.5" x2="551.5" y1="299.3594" y2="299.3594"/><text fill="#000000" font-family="sans-serif" font-size="13" lengthAdjust="spacing" textLength="59" x="172.5" y="294.2935">crediter()</text><polygon fill="#181818" points="143.5,324.4922,153.5,328.4922,143.5,332.4922,147.5,328.4922" style="stroke:#181818;stroke-width:1.0;"/><line style="stroke:#181818;stroke-width:1.0;" x1="29.5" x2="149.5" y1="328.4922" y2="328.4922"/><text fill="#000000" font-family="sans-serif" font-size="13" lengthAdjust="spacing" textLength="78" x="36.5" y="323.4263">remunerer()</text><polygon fill="#181818" points="545.5,353.625,555.5,357.625,545.5,361.625,549.5,357.625" style="stroke:#181818;stroke-width:1.0;"/><line style="stroke:#181818;stroke-width:1.0;" x1="165.5" x2="551.5" y1="357.625" y2="357.625"/><text fill="#000000" font-family="sans-serif" font-size="13" lengthAdjust="spacing" textLength="78" x="172.5" y="352.5591">remunerer()</text><polygon fill="#181818" points="143.5,382.7578,153.5,386.7578,143.5,390.7578,147.5,386.7578" style="stroke:#181818;stroke-width:1.0;"/><line style="stroke:#181818;stroke-width:1.0;" x1="29.5" x2="149.5" y1="386.7578" y2="386.7578"/><text fill="#000000" font-family="sans-serif" font-size="13" lengthAdjust="spacing" textLength="66" x="36.5" y="381.6919">getSolde()</text><polygon fill="#181818" points="342,411.8906,352,415.8906,342,419.8906,346,415.8906" style="stroke:#181818;stroke-width:1.0;"/><line style="stroke:#181818;stroke-width:1.0;" x1="165.5" x2="348" y1="415.8906" y2="415.8906"/><text fill="#000000" font-family="sans-serif" font-size="13" lengthAdjust="spacing" textLength="66" x="172.5" y="410.8247">getSolde()</text><polygon fill="#181818" points="176.5,441.0234,166.5,445.0234,176.5,449.0234,172.5,445.0234" style="stroke:#181818;stroke-width:1.0;"/><line style="stroke:#181818;stroke-width:1.0;" x1="170.5" x2="353" y1="445.0234" y2="445.0234"/><text fill="#000000" font-family="sans-serif" font-size="13" lengthAdjust="spacing" textLength="34" x="182.5" y="439.9575">solde</text><polygon fill="#181818" points="545.5,470.1563,555.5,474.1563,545.5,478.1563,549.5,474.1563" style="stroke:#181818;stroke-width:1.0;"/><line style="stroke:#181818;stroke-width:1.0;" x1="165.5" x2="551.5" y1="474.1563" y2="474.1563"/><text fill="#000000" font-family="sans-serif" font-size="13" lengthAdjust="spacing" textLength="66" x="172.5" y="469.0903">getSolde()</text><polygon fill="#181818" points="176.5,499.2891,166.5,503.2891,176.5,507.2891,172.5,503.2891" style="stroke:#181818;stroke-width:1.0;"/><line style="stroke:#181818;stroke-width:1.0;" x1="170.5" x2="556.5" y1="503.2891" y2="503.2891"/><text fill="#000000" font-family="sans-serif" font-size="13" lengthAdjust="spacing" textLength="34" x="182.5" y="498.2231">solde</text><polygon fill="#181818" points="40.5,528.4219,30.5,532.4219,40.5,536.4219,36.5,532.4219" style="stroke:#181818;stroke-width:1.0;"/><line style="stroke:#181818;stroke-width:1.0;" x1="34.5" x2="159.5" y1="532.4219" y2="532.4219"/><text fill="#000000" font-family="sans-serif" font-size="13" lengthAdjust="spacing" textLength="34" x="46.5" y="527.356">solde</text><!--SRC=[fPDD3e8m48NtFGLX9GikG58MeYQkFS7OJiWaC3LbyFoAea5-nDHLE-atxtLUMgsFJ49GKGD2ZhLMgWRYACsZsBgc8VHRO0FaCTizwpYB-jqcKM24hY2uJAl5apIFZQilWeLhFR1anQEA-_L3VHRyGNf_0LyohakFGAMqFZWsNIYCDRAyehbBBmPZF5gIUp3MjUSAau3Ptn99m7I3vhMhUgnRHXzeDEnUSofHJgwok0c9OzWyItnpRhhEWEccfYFYBzCkhvwokFOCfyJu3mo99TCR]--></g></svg>